<svg xmlns="http://www.w3.org/2000/svg" height="800" viewBox="0 -10 600 600" width="800"><path d="M600 390V10c0-5.523-4.477-10-10-10H10C4.477 0 0 4.477 0 10v380c0 5.523 4.477 10 10 10h293c-12.316 59.953 13.023 121.367 64.031 155.191 51.008 33.825 117.446 33.27 167.875-1.402 50.438-34.672 74.746-96.504 61.43-156.242A9.822 9.822 0 0 0 600 390zM580 20v255.86l-82.93-82.93A10 10 0 0 0 484 192l-114.918 86.188-202.754-165.926a10 10 0 0 0-15.07 2.879L20 351.41V20zM27 380l135.93-244.68L369 304a150.588 150.588 0 0 0-60.25 76zm423 180c-71.797 0-130-58.203-130-130s58.203-130 130-130 130 58.203 130 130c-.082 71.762-58.238 129.918-130 130zm0-280a148.92 148.92 0 0 0-62.078 13.617l-2.914-2.375 104.05-78L580 304.141v51.347C553.312 308.863 503.727 280.07 450 280zm0 0"/><path d="M420 140c27.613 0 50-22.387 50-50s-22.387-50-50-50-50 22.387-50 50c.035 27.602 22.398 49.965 50 50zm0-80c16.566 0 30 13.434 30 30 0 16.566-13.434 30-30 30-16.566 0-30-13.434-30-30 0-16.566 13.434-30 30-30zm40 270h-20v90h-90v20h90v80h20v-80h90v-20h-90zm0 0"/></svg>