<svg xmlns="http://www.w3.org/2000/svg" viewBox="0 0 512 512"><path d="M473.886 85.384c-.019-.149-.037-.297-.058-.446-.068-.47-.146-.938-.238-1.403-.053-.276-.116-.549-.177-.822-.085-.374-.167-.747-.267-1.117a28.517 28.517 0 0 0-.593-1.952c-.067-.193-.131-.387-.202-.578-.055-.149-.116-.296-.174-.444a28.617 28.617 0 0 0-.378-.928c-.035-.082-.073-.163-.109-.244a29.078 29.078 0 0 0-.51-1.088l-.071-.141a27.967 27.967 0 0 0-.61-1.147l-.055-.096a28.572 28.572 0 0 0-.683-1.139l-.06-.094a27.12 27.12 0 0 0-.73-1.087l-.082-.117a27.316 27.316 0 0 0-.756-1.009c-.04-.052-.079-.104-.12-.155-.249-.313-.506-.62-.769-.923-.055-.063-.107-.128-.163-.191a27.115 27.115 0 0 0-.8-.865c-.061-.063-.118-.128-.179-.191-.333-.34-.673-.673-1.024-.998l-32.863-30.362-32.862-30.365a28.603 28.603 0 0 0-1.682-1.429 28.102 28.102 0 0 0-3.131-2.145l-.096-.057a28.212 28.212 0 0 0-2.052-1.077c-.139-.066-.28-.129-.42-.193a27.88 27.88 0 0 0-1.918-.798c-.074-.027-.146-.057-.22-.084a28.06 28.06 0 0 0-4.746-1.264c-.02-.003-.038-.009-.058-.013-.019-.003-.039-.003-.058-.007A28.373 28.373 0 0 0 380.227 0H204.85c-17.763 0-32.213 14.45-32.213 32.212v213.592c-.555-.007-1.109-.021-1.666-.021-73.396 0-133.108 59.712-133.108 133.108S97.573 512 170.971 512c59.359 0 109.76-39.059 126.871-92.822h144.084c17.762 0 32.212-14.45 32.212-32.212V88.909c0-1.186-.102-2.36-.252-3.525zm-80.562-56.24l52.543 48.544h-47.608a4.94 4.94 0 0 1-4.935-4.934v-43.61zm-111.07 370.034a112.026 112.026 0 0 1-5.596 20C260.39 461.712 219.154 492 170.971 492c-62.368 0-113.108-50.74-113.108-113.108s50.74-113.108 113.108-113.108c.557 0 1.111.013 1.666.021a113.09 113.09 0 0 1 20 2.07c52.038 10.137 91.442 56.059 91.442 111.018 0 6.922-.628 13.701-1.825 20.285zm171.885-12.212h-.001c0 6.734-5.479 12.212-12.212 12.212h-139.39a133.587 133.587 0 0 0 1.543-20.286c0-66.019-48.315-120.957-111.442-131.336V32.212c0-6.734 5.479-12.212 12.213-12.212h168.475v52.753c0 13.749 11.186 24.934 24.935 24.934h55.879v289.279z"/><path d="M192.637 286.55a95.7 95.7 0 0 0-22.564-2.688c-52.895 0-95.928 43.033-95.928 95.928 0 17.422 4.72 34.486 13.65 49.347a9.998 9.998 0 0 0 13.722 3.42c4.734-2.845 6.266-8.988 3.421-13.722-7.061-11.75-10.793-25.251-10.793-39.045 0-41.867 34.062-75.928 75.928-75.928.86 0 1.711.037 2.564.065 6.938.232 13.65 1.378 20 3.358C223.518 316.917 246 345.778 246 379.791a75.75 75.75 0 0 1-2.518 19.387 75.52 75.52 0 0 1-8.519 20c-13.337 21.892-37.435 36.541-64.89 36.541-3.501 0-7.019-.24-10.453-.713-5.474-.748-10.518 3.072-11.271 8.543-.754 5.471 3.071 10.517 8.542 11.271 4.336.597 8.771.899 13.182.899 38.865 0 72.406-23.233 87.464-56.541a95.175 95.175 0 0 0 6.494-20 95.959 95.959 0 0 0 1.97-19.387c-.001-45.125-31.322-83.066-73.364-93.241zM248.818 124.758c-5.522 0-10 4.477-10 10s4.478 10 10 10h149.228c5.522 0 10-4.477 10-10s-4.478-10-10-10H248.818zM368.046 198.397c0-5.523-4.478-10-10-10H248.818c-5.522 0-10 4.477-10 10s4.478 10 10 10h109.228c5.522 0 10-4.477 10-10zM398.046 252.036h-96.388c-5.522 0-10 4.477-10 10s4.478 10 10 10h96.388c5.522 0 10-4.477 10-10s-4.478-10-10-10zM398.046 315.674h-69.658c-5.522 0-10 4.477-10 10s4.478 10 10 10h69.658c5.522 0 10-4.477 10-10s-4.478-10-10-10z"/><path d="M170.072 389.791h33.595c5.522 0 10-4.477 10-10s-4.478-10-10-10H175.833l-3.196-5.513-20.073-34.62c-2.771-4.777-8.887-6.405-13.668-3.635-4.777 2.771-6.404 8.889-3.635 13.667l26.16 45.116a9.998 9.998 0 0 0 8.651 4.985zM131.169 447.16a9.937 9.937 0 0 0-.92-1.73 9.57 9.57 0 0 0-1.24-1.52 9.57 9.57 0 0 0-1.52-1.24 9.87 9.87 0 0 0-1.73-.92c-.6-.25-1.229-.45-1.87-.57a9.898 9.898 0 0 0-3.91 0c-.63.12-1.26.32-1.87.57-.6.25-1.18.56-1.72.92-.55.36-1.06.78-1.52 1.24a9.87 9.87 0 0 0-2.17 3.25 9.84 9.84 0 0 0-.76 3.82c0 .65.061 1.31.19 1.96.13.63.32 1.26.57 1.87.25.6.56 1.18.92 1.72.37.55.779 1.06 1.25 1.52.46.46.97.88 1.52 1.24.54.36 1.12.67 1.72.92.61.25 1.24.45 1.87.57.65.13 1.311.2 1.96.2.65 0 1.311-.07 1.95-.2a9.352 9.352 0 0 0 1.87-.57 9.87 9.87 0 0 0 1.73-.92 9.57 9.57 0 0 0 1.52-1.24c.46-.46.88-.97 1.24-1.52.359-.54.67-1.12.92-1.72.25-.61.439-1.24.57-1.87.13-.65.199-1.31.199-1.96a10.098 10.098 0 0 0-.769-3.82zM407.28 194.04a9.874 9.874 0 0 0-.921-1.73 9.51 9.51 0 0 0-1.239-1.52c-.46-.46-.971-.88-1.521-1.24a10.122 10.122 0 0 0-3.599-1.49 9.898 9.898 0 0 0-3.91 0c-.64.13-1.271.32-1.87.57s-1.18.56-1.729.92a9.97 9.97 0 0 0-1.511 1.24c-.47.46-.88.97-1.25 1.52a10.096 10.096 0 0 0-1.489 3.6c-.131.64-.19 1.3-.19 1.95 0 .65.06 1.31.19 1.96.13.63.319 1.26.569 1.87.25.6.561 1.18.92 1.72.37.55.78 1.06 1.25 1.52.46.46.971.88 1.511 1.25.55.36 1.13.67 1.729.92s1.23.44 1.87.57c.65.13 1.31.19 1.96.19a9.84 9.84 0 0 0 3.82-.76c.6-.25 1.189-.56 1.729-.92.55-.37 1.061-.79 1.521-1.25.46-.46.88-.97 1.239-1.52.36-.54.671-1.12.921-1.72.25-.61.439-1.24.569-1.87.13-.65.2-1.31.2-1.96s-.07-1.31-.2-1.95a10.02 10.02 0 0 0-.569-1.87z"/></svg>